<svg height="487pt" viewBox="0 -12 487.7729 487" width="487pt" xmlns="http://www.w3.org/2000/svg"><path d="m481.121094 302.578125c-4.84375-5.328125-11.75-8.382813-18.945313-8.382813h-10.851562c.136719-.132812.289062-.25.425781-.386718 5.65625-5.636719 8.773438-13.140625 8.773438-21.128906 0-16.386719-13.328126-29.765626-29.722657-29.832032l-65.414062-.128906v-14.015625l26.957031-3.742187c4.558594 5.871093 11.65625 9.664062 19.644531 9.664062 13.726563 0 24.890625-11.164062 24.890625-24.886719 0-7.363281-3.234375-13.96875-8.328125-18.527343-.019531-.261719-.015625-.519532-.046875-.78125-.886718-8.191407-4.941406-15.488282-11.425781-20.546876-5.078125-3.960937-11.117187-6.125-17.414063-6.34375v-25.894531c0-22.699219-18.464843-41.167969-41.167968-41.167969h-15.773438c-1.203125 0-2.183594-.976562-2.183594-2.183593 0-.769531.359376-1.46875.933594-1.820313 12.449219-7.496094 19.882813-20.609375 19.882813-35.089844 0-22.585937-18.378907-40.96875-40.96875-40.992187-22.585938.023437-40.960938 18.410156-40.960938 40.992187 0 14.480469 7.429688 27.59375 19.875 35.089844.585938.351563.941407 1.050782.941407 1.820313 0 1.207031-.980469 2.183593-2.183594 2.183593h-15.777344c-22.699219 0-41.167969 18.46875-41.167969 41.167969v66.71875c0 8.300781 5.824219 15.570313 13.542969 16.910157.855469.148437 1.714844.148437 2.570312.164062.175782.027344.328126.113281.511719.117188l12.511719.328124-15.574219 20.589844s-100.925781-.261718-103.082031-.28125l-22.933594-.226562c-8.171875.042968-15.835937 3.054687-21.5 8.664062-.804687-.96875-1.679687-1.90625-2.609375-2.796875-7.0625-8.628906-17.46875-13.574219-28.601562-13.574219-20.386719 0-36.972657 16.585938-36.972657 36.96875 0 8.679688 3.027344 16.65625 8.058594 22.972657h-4.523437c-13.570313 0-25.167969 10.144531-26.402344 23.089843-.6875 7.210938 1.695313 14.398438 6.53125 19.71875 4.84375 5.328126 11.75 8.382813 18.941406 8.382813h5.324219v96.226563c0 10.089843 8.207031 18.296874 18.296875 18.296874 10.085937 0 18.296875-8.207031 18.296875-18.296874v-96.226563h191.925781l-.03125 96.808594c0 11.246093 9.152344 20.402343 20.402344 20.402343s20.402344-9.152343 20.402344-20.402343v-96.808594h8.390625v96.808594c0 11.246093 9.152344 20.402343 20.402344 20.402343s20.402343-9.152343 20.402343-20.402343v-96.808594h58.535157v96.226563c0 10.089843 8.207031 18.296874 18.296874 18.296874 10.085938 0 18.300782-8.207031 18.300782-18.296874v-96.226563h.730468c13.570313 0 25.164063-10.144531 26.398438-23.097656.683594-7.207031-1.699219-14.386719-6.535156-19.714844zm0 0" fill="#e6e7e8"/><path d="m416.882812 193.738281c0 11.535157-9.351562 20.886719-20.890624 20.886719-11.535157 0-20.886719-9.351562-20.886719-20.886719 0-11.535156 9.351562-20.886719 20.886719-20.886719 11.539062 0 20.890624 9.351563 20.890624 20.886719zm0 0" fill="#6dc9f7"/><path d="m395.992188 218.625c-13.722657 0-24.886719-11.164062-24.886719-24.886719 0-13.722656 11.164062-24.886719 24.886719-24.886719 13.730468 0 24.894531 11.164063 24.894531 24.886719-.003907 13.722657-11.167969 24.886719-24.894531 24.886719zm0-41.773438c-9.308594 0-16.886719 7.574219-16.886719 16.886719s7.578125 16.886719 16.886719 16.886719c9.3125 0 16.894531-7.574219 16.894531-16.886719-.003907-9.3125-7.582031-16.886719-16.894531-16.886719zm0 0" fill="#3a2c60"/><path d="m342.5 84.476562h-15.773438c-3.417968 0-6.183593-2.765624-6.183593-6.183593 0-2.121094 1.050781-4.148438 2.871093-5.246094 10.738282-6.472656 17.941407-18.214844 17.941407-31.667969 0-20.421875-16.550781-36.972656-36.964844-36.992187-20.417969.019531-36.964844 16.566406-36.964844 36.992187 0 13.457032 7.199219 25.199219 17.941407 31.667969 1.820312 1.09375 2.871093 3.121094 2.871093 5.246094 0 3.417969-2.769531 6.183593-6.183593 6.183593h-15.777344c-20.527344 0-37.167969 16.640626-37.167969 37.167969v66.71875c0 6.167969 4.148437 11.910157 10.222656 12.96875 7.867188 1.363281 14.695313-4.65625 14.695313-12.269531h9.433594l-.070313 237.136719c0 9.054687 7.34375 16.398437 16.398437 16.398437 9.054688 0 16.402344-7.34375 16.402344-16.398437v-117.753907c0-4.53125 3.667969-8.207031 8.195313-8.222656 4.527343.019532 8.195312 3.691406 8.195312 8.222656v117.75c0 9.054688 7.34375 16.398438 16.398438 16.398438 9.058593 0 16.402343-7.34375 16.402343-16.398438v-237.132812h9.363282c0 7.613281 6.828125 13.632812 14.691406 12.269531 6.074219-1.058593 10.222656-6.800781 10.222656-12.96875v-66.71875c.007813-20.527343-16.632812-37.167969-37.160156-37.167969zm0 0" fill="#6dc9f7"/><g fill="#3a2c60"><path d="m328.988281 446.597656c-11.246093 0-20.402343-9.152344-20.402343-20.398437v-117.753907c0-2.320312-1.890626-4.214843-4.210938-4.222656-2.289062.007813-4.179688 1.902344-4.179688 4.222656v117.753907c0 11.246093-9.152343 20.398437-20.402343 20.398437-11.246094 0-20.402344-9.152344-20.402344-20.398437l.074219-233.136719h-1.925782c-.832031 3.328125-2.695312 6.34375-5.382812 8.605469-3.722656 3.128906-8.628906 4.4375-13.503906 3.605469-7.71875-1.339844-13.539063-8.605469-13.539063-16.910157v-66.71875c0-22.699219 18.46875-41.167969 41.167969-41.167969h15.773438c1.203124 0 2.183593-.976562 2.183593-2.183593 0-.773438-.359375-1.46875-.9375-1.820313-12.441406-7.496094-19.875-20.613281-19.875-35.09375 0-22.582031 18.375-40.96875 40.957031-40.992187 22.589844.019531 40.96875 18.410156 40.96875 40.992187 0 14.480469-7.429687 27.597656-19.882812 35.09375-.578125.351563-.933594 1.050782-.933594 1.820313 0 1.207031.976563 2.183593 2.183594 2.183593h15.773438c22.703124 0 41.167968 18.46875 41.167968 41.167969v66.71875c0 8.300781-5.820312 15.570313-13.542968 16.910157-4.851563.828124-9.78125-.476563-13.503907-3.605469-2.6875-2.261719-4.546875-5.277344-5.378906-8.605469h-1.855469v233.136719c.007813 11.246093-9.144531 20.398437-20.390625 20.398437zm-24.613281-150.375c6.746094.023438 12.210938 5.507813 12.210938 12.222656v117.753907c0 6.835937 5.5625 12.398437 12.402343 12.398437 6.835938 0 12.402344-5.5625 12.402344-12.398437v-237.136719c0-2.207031 1.785156-4 4-4h9.363281c2.210938 0 4 1.792969 4 4 0 2.503906 1.101563 4.863281 3.019532 6.480469 1.941406 1.636719 4.417968 2.292969 6.988281 1.847656 3.9375-.683594 6.910156-4.5625 6.910156-9.027344v-66.71875c0-18.285156-14.878906-33.167969-33.167969-33.167969h-15.78125c-5.617187 0-10.183594-4.566406-10.183594-10.183593 0-3.558594 1.84375-6.882813 4.804688-8.671875 10.027344-6.035156 16.011719-16.59375 16.011719-28.242188 0-18.171875-14.789063-32.972656-32.96875-32.992187-18.167969.015625-32.957031 14.816406-32.957031 32.992187 0 11.648438 5.984374 22.207032 16.003906 28.242188 2.96875 1.789062 4.808594 5.113281 4.808594 8.671875 0 5.617187-4.570313 10.183593-10.183594 10.183593h-15.773438c-18.289062 0-33.167968 14.882813-33.167968 33.167969v66.71875c0 4.464844 2.96875 8.34375 6.910156 9.027344 2.550781.441406 5.042968-.207031 6.984375-1.84375 1.917969-1.617187 3.023437-3.980469 3.023437-6.484375 0-2.207031 1.785156-4 4-4h9.433594c1.066406 0 2.082031.421875 2.828125 1.171875.75.753906 1.171875 1.769531 1.171875 2.832031l-.074219 237.136719c0 6.835937 5.5625 12.398437 12.402344 12.398437 6.835937 0 12.402344-5.5625 12.402344-12.398437v-117.757813c-.003907-6.710937 5.460937-12.199218 12.175781-12.222656zm0 0"/><path d="m260.382812 188.066406c-2.214843 0-4-1.792968-4-4v-57.027344c0-2.207031 1.785157-4 4-4 2.210938 0 4 1.792969 4 4v57.027344c0 2.207032-1.789062 4-4 4zm0 0"/><path d="m348.089844 188.066406c-2.210938 0-4-1.792968-4-4v-57.027344c0-2.207031 1.789062-4 4-4 2.210937 0 4 1.792969 4 4v57.027344c0 2.207032-1.789063 4-4 4zm0 0"/></g><path d="m414.792969 230.851562-108.648438-.21875 13.496094-17.84375 65.390625-9.070312c14.1875-1.96875 25.042969-14.621094 23.503906-28.859375-1.597656-14.738281-15.03125-25.136719-29.605468-23.117187l-77.511719 10.699218c-6.644531.917969-12.652344 4.441406-16.695313 9.789063l-44.0625 58.246093-42.179687-.171874-85.875-.34375c-8.996094-.128907-16.984375 4.335937-21.738281 11.226562-1.410157-2.476562-3.203126-4.699219-5.261719-6.644531-6.042969-7.488281-15.289063-12.289063-25.660157-12.289063-18.207031 0-32.972656 14.765625-32.972656 32.972656 0 18.207032 14.761719 32.972657 32.972656 32.972657 10.355469 0 19.589844-4.785157 25.632813-12.253907 1.867187-1.757812 3.519531-3.75 4.863281-5.957031 4.550782 7.023438 12.402344 11.71875 21.398438 11.851563l302.757812.679687c14.300782.042969 25.914063-11.53125 25.914063-25.832031.007812-14.230469-11.492188-25.777344-25.71875-25.835938zm0 0" fill="#fff"/><path d="m378.925781 163.746094-77.511719 10.699218c-6.644531.917969-12.652343 4.441407-16.695312 9.789063l-42.847656 56.648437c-.761719 1.003907-1.949219 1.589844-3.210938 1.585938l-40.183594-.160156-85.875-.34375c-7.199218-.101563-13.757812 2.738281-18.523437 7.410156-1.75 1.710938-4.472656 1.632812-6.042969-.25-.757812-.90625-1.574218-1.765625-2.429687-2.578125-6.042969-7.488281-15.289063-12.289063-25.660157-12.289063-16.15625 0-29.574218 11.632813-32.398437 26.972657 2.824219 15.339843 16.242187 26.972656 32.398437 26.972656 10.355469 0 19.589844-4.785156 25.632813-12.253906 1.867187-1.757813 3.519531-3.75 4.863281-5.957031 4.550782 7.023437 12.402344 11.71875 21.398438 11.851562l302.757812.679688c12.230469.039062 22.472656-8.4375 25.1875-19.832032-2.699218-11.332031-12.839844-19.785156-24.996094-19.835937l-117.707031-.222657 22.558594-29.84375 65.390625-9.070312c11.214844-1.554688 20.324219-9.796875 22.894531-20.210938-3.117187-12.917968-15.558593-21.625-29-19.761718zm0 0" fill="#fa759e"/><path d="m174.796875 234.277344c-.003906 0-.011719 0-.015625 0l-23.238281-.089844c-2.214844-.007812-3.992188-1.808594-3.984375-4.015625.007812-2.207031 1.796875-3.984375 4-3.984375h.015625l23.238281.089844c2.214844.007812 3.992188 1.808594 3.984375 4.015625-.007813 2.203125-1.796875 3.984375-4 3.984375zm0 0" fill="#3a2c60"/><path d="m59.949219 292.199219c-20.386719 0-36.972657-16.585938-36.972657-36.972657 0-20.386718 16.585938-36.972656 36.972657-36.972656 11.128906 0 21.539062 4.941406 28.601562 13.570313.929688.894531 1.804688 1.832031 2.609375 2.800781 5.664063-5.609375 13.347656-8.746094 21.5-8.664062l22.933594.222656c2.207031.019531 3.980469 1.828125 3.960938 4.039062-.019532 2.195313-1.808594 3.960938-4 3.960938-.011719 0-.023438 0-.042969 0l-22.949219-.222656c-7.28125-.246094-14.234375 3.441406-18.410156 9.496093-.777344 1.136719-2.074219 1.75-3.460938 1.726563-1.378906-.0625-2.625-.820313-3.304687-2.015625-1.175781-2.066407-2.699219-3.988281-4.527344-5.71875-.132813-.121094-.253906-.253907-.371094-.394531-5.539062-6.863282-13.753906-10.800782-22.546875-10.800782-15.976562 0-28.972656 13-28.972656 28.972656 0 15.972657 12.996094 28.972657 28.972656 28.972657 8.777344 0 16.988282-3.925781 22.523438-10.769531.113281-.140626.238281-.269532.367187-.394532 1.65625-1.5625 3.070313-3.289062 4.191407-5.128906.71875-1.175781 1.980468-1.898438 3.363281-1.917969h.054687c1.355469 0 2.617188.683594 3.355469 1.820313 4 6.175781 10.769531 9.921875 18.105469 10.03125l302.703125.679687h.070312c5.824219 0 11.296875-2.261719 15.421875-6.375 4.136719-4.125 6.414063-9.613281 6.414063-15.460937 0-11.992188-9.75-21.785156-21.742188-21.832032l-108.640625-.21875c-1.515625-.003906-2.902344-.863281-3.574218-2.222656-.675782-1.355468-.523438-2.980468.390624-4.191406l13.496094-17.839844c.640625-.84375 1.589844-1.40625 2.640625-1.546875l65.386719-9.074219c12.347656-1.710937 21.355469-12.6875 20.082031-24.464843-.652343-6.023438-3.632812-11.386719-8.402343-15.101563-4.769532-3.726562-10.726563-5.324218-16.679688-4.480468l-77.507812 10.699218c-5.632813.777344-10.625 3.699219-14.054688 8.242188l-44.046875 58.238281c-.757813 1.003906-1.882813 1.679687-3.210937 1.585937l-49.867188-.199218c-2.210938-.007813-3.992188-1.808594-3.984375-4.015625.007813-2.203125 1.796875-3.984375 4-3.984375h.015625l47.871094.191406 42.84375-56.644531c4.722656-6.246094 11.589844-10.269531 19.34375-11.335938l77.511718-10.703125c8.128907-1.125 16.214844 1.039063 22.699219 6.101563 6.484375 5.058593 10.542969 12.355469 11.425781 20.550781 1.742188 16.03125-10.34375 30.949219-26.925781 33.253906l-63.75 8.839844-7.660156 10.125 100.628906.199219c16.394531.066406 29.722657 13.449219 29.722657 29.832031 0 7.988281-3.113282 15.492188-8.769532 21.125-5.65625 5.636719-13.242187 8.550781-21.160156 8.707031l-302.753906-.679687c-8.167969-.121094-15.785156-3.507813-21.28125-9.285156-.644532.730468-1.320313 1.4375-2.035156 2.117187-7.0625 8.597656-17.460938 13.527344-28.574219 13.527344zm0 0" fill="#3a2c60"/><path d="m306.144531 234.632812h-15.511719c-2.210937 0-4-1.789062-4-4 0-2.207031 1.789063-4 4-4h15.511719c2.214844 0 4 1.792969 4 4 0 2.210938-1.785156 4-4 4zm0 0" fill="#3a2c60"/><path d="m256.476562 168.082031 61.523438 1.960938c9.246094.238281 16.542969 7.925781 16.300781 17.171875-.238281 9.242187-7.925781 16.539062-17.171875 16.300781l-75.285156-1.960937zm0 0" fill="#6dc9f7"/><path d="m317.570312 207.523438c-.179687 0-.363281 0-.546874-.007813l-75.285157-1.964844c-2.207031-.054687-3.949219-1.894531-3.898437-4.101562.066406-2.210938 1.859375-3.980469 4.105468-3.894531l75.285157 1.964843c.105469 0 .222656.003907.335937.003907 6.871094 0 12.550782-5.5 12.730469-12.414063.183594-7.019531-5.382813-12.882813-12.40625-13.066406l-57.558594-1.960938c-2.207031-.074219-3.933593-1.921875-3.859375-4.136719.078125-2.203124 1.925782-3.957031 4.132813-3.859374l57.523437 1.960937c11.402344.296875 20.457032 9.839844 20.164063 21.273437-.289063 11.25-9.535157 20.203126-20.722657 20.203126zm0 0" fill="#3a2c60"/><path d="m446.175781 282.199219h-419.664062c-11.277344 0-21.351563 8.242187-22.417969 19.472656-1.226562 12.878906 8.867188 23.714844 21.492188 23.714844h9.320312v100.226562c0 7.898438 6.398438 14.296875 14.296875 14.296875 7.894531 0 14.292969-6.398437 14.292969-14.296875v-100.226562h348.421875v100.226562c0 7.898438 6.398437 14.296875 14.296875 14.296875 7.894531 0 14.292968-6.398437 14.292968-14.296875v-100.226562h4.734376c11.28125 0 21.351562-8.25 22.417968-19.476563 1.238282-12.875-8.859375-23.710937-21.484375-23.710937zm0 0" fill="#0089ef"/><path d="m426.222656 443.910156c-10.089844 0-18.300781-8.207031-18.300781-18.300781v-96.222656h-340.417969v96.226562c0 10.089844-8.210937 18.300781-18.296875 18.300781-10.089843 0-18.296875-8.207031-18.296875-18.300781v-96.226562h-5.320312c-7.195313 0-14.101563-3.054688-18.945313-8.382813-4.835937-5.324218-7.21875-12.507812-6.527343-19.714844 1.238281-12.945312 12.832031-23.089843 26.40625-23.089843h419.660156c7.195312 0 14.097656 3.054687 18.9375 8.378906s7.222656 12.507813 6.535156 19.714844c-1.234375 12.949219-12.832031 23.09375-26.402344 23.09375h-.730468v96.226562c0 10.089844-8.210938 18.296875-18.300782 18.296875zm-362.71875-122.523437h348.417969c2.210937 0 4 1.792969 4 4v100.226562c0 5.679688 4.621094 10.300781 10.300781 10.300781 5.675782 0 10.296875-4.621093 10.296875-10.300781v-100.226562c0-2.207031 1.785157-4 4-4h4.730469c9.492188 0 17.589844-6.964844 18.441406-15.851563.476563-5.042968-1.117187-9.863281-4.492187-13.578125-3.328125-3.664062-8.082031-5.757812-13.027344-5.757812h-419.652344c-9.492187 0-17.59375 6.964843-18.441406 15.851562-.480469 5.039063 1.113281 9.859375 4.488281 13.570313 3.328125 3.664062 8.078125 5.765625 13.023438 5.765625h9.320312c2.210938 0 4 1.792969 4 4v100.226562c0 5.679688 4.621094 10.300781 10.296875 10.300781 5.679688 0 10.296875-4.621093 10.296875-10.300781v-100.226562c0-2.207031 1.789063-4 4-4zm0 0" fill="#3a2c60"/></svg>