<svg height="512pt" viewBox="-61 0 512 512" width="512pt" xmlns="http://www.w3.org/2000/svg"><path d="m210 60v15h-30v-15c0-16.539062-13.460938-30-30-30s-30 13.460938-30 30v15h-30v-15c0-33.078125 26.921875-60 60-60 17.898438 0 34 7.890625 45 20.371094 9.328125 10.570312 15 24.449218 15 39.628906zm0 0" fill="#596c76"/><path d="m210 60v15h-15v-54.628906c9.328125 10.570312 15 24.449218 15 39.628906zm0 0" fill="#465a61"/><path d="m0 92h390v420h-390zm0 0" fill="#57d9d4"/><path d="m195 92h195v420h-195zm0 0" fill="#26bfbf"/><path d="m60 60v392h270v-392zm0 0" fill="#e6ffff"/><path d="m195 60h135v392h-135zm0 0" fill="#d9f2ff"/><path d="m120 362h150v30h-150zm0 0" fill="#596c76"/><path d="m195 362h75v30h-75zm0 0" fill="#465a61"/><path d="m267.121094 243c0 28.289062-24.660156 47.449219-47.632813 66.839844-15.207031 12.832031-14.347656 12.28125-24.488281 21.011718-9.589844-8.261718-9.300781-8.191406-24.5-21.011718-27.640625-23.339844-47.621094-40.199219-47.621094-66.839844 0-25.789062 19.140625-46 43.5625-46 10.929688 0 20.699219 4.019531 28.558594 11.570312 7.859375-7.550781 17.628906-11.570312 28.558594-11.570312 24.421875 0 43.5625 20.210938 43.5625 46zm0 0" fill="#ff637b"/><path d="m267.121094 243c0 28.289062-24.660156 47.449219-47.632813 66.839844-15.207031 12.832031-14.347656 12.28125-24.488281 21.011718v-122.28125c7.859375-7.550781 17.628906-11.570312 28.558594-11.570312 24.421875 0 43.5625 20.210938 43.5625 46zm0 0" fill="#e63950"/><path d="m210 60v77c0 13.300781-5.800781 25.261719-15 33.5-7.960938 7.148438-18.488281 11.5-30 11.5-24.808594 0-45-20.191406-45-45v-77h30v77c0 8.269531 6.730469 15 15 15s15-6.730469 15-15v-77zm0 0" fill="#596c76"/><path d="m210 60v77c0 13.300781-5.800781 25.261719-15 33.5v-110.5zm0 0" fill="#465a61"/></svg>